<svg viewBox="0 0 365 365" xmlns="http://www.w3.org/2000/svg" xmlns:xlink="http://www.w3.org/1999/xlink"><linearGradient id="a" gradientTransform="matrix(1 0 0 -1 0 366)" gradientUnits="userSpaceOnUse" x1="160.05" x2="19.22" y1="66.22" y2="207.04"><stop offset=".11" stop-color="#0d7044"/><stop offset=".43" stop-color="#11945a"/></linearGradient><linearGradient id="b" gradientTransform="matrix(-.71 .71 .71 .71 -54.95 -149.49)" gradientUnits="userSpaceOnUse" x1="-131.51" x2="204.04" y1="433.25" y2="433.25"><stop offset="0" stop-color="#2ac782"/><stop offset="1" stop-color="#21b876"/></linearGradient><path d="m123.12 317.12-119.5-119.5a15.75 15.75 0 0 1 0-22.29l32-32a15.75 15.75 0 0 1 22.29 0l119.5 119.49a15.77 15.77 0 0 1 0 22.29l-32 32a15.77 15.77 0 0 1 -22.29.01z" fill="url(#a)"/><path d="m91.14 262.85 215-215a15.75 15.75 0 0 1 22.29 0l32 32a15.75 15.75 0 0 1 0 22.29l-215 215a15.75 15.75 0 0 1 -22.29 0l-32-32a15.77 15.77 0 0 1 0-22.29z" fill="url(#b)"/></svg>