<svg viewBox="0 0 365 365" xmlns="http://www.w3.org/2000/svg"><path d="m293 316.89a85.65 85.65 0 0 1 -60.47 25.17h-35.53a70.85 70.85 0 0 1 -50.1-20.86l-129.66-129.65a14.18 14.18 0 0 1 0-20.06 32.81 32.81 0 0 1 42.72-3l57.56 43.12v-165.46a25.07 25.07 0 0 1 50.14 0v90.24a25.07 25.07 0 0 1 50.13 0v10a25.07 25.07 0 0 1 50.14 0v10a25.18 25.18 0 0 1 7.07-17.39l.1-.1a24.75 24.75 0 0 1 17.9-7.52 25.08 25.08 0 0 1 25.07 25.07v100.08a85.3 85.3 0 0 1 -25.07 60.36z" fill="#ffcc80"/><g fill="#ffb74d"><path d="m172.67 176.5a7.64 7.64 0 0 1 -5 2.21v-42.32a25.19 25.19 0 0 1 7.11-17.54v52.74a7.56 7.56 0 0 1 -2.11 4.91z"/><path d="m222.81 176.51a7.71 7.71 0 0 1 -5 2.2v-32.29a25.28 25.28 0 0 1 7.12-17.55v42.72a7.61 7.61 0 0 1 -2.12 4.92z"/><path d="m267.93 163.67v-7.22a25.16 25.16 0 0 1 7.07-17.45l.1 17.55a7.23 7.23 0 0 1 -7.17 7.12z"/></g><path d="m141.87 326.29-129.64-129.65a21.26 21.26 0 0 1 0-30.08 40 40 0 0 1 52-3.69l46.18 34.62v-151.27a32.2 32.2 0 0 1 32.16-32.16 32.93 32.93 0 0 1 32.15 32.16v63.58a32.14 32.14 0 0 1 44.62 8.66 30.63 30.63 0 0 1 2.24 3.89 32 32 0 0 1 21.25-8 32.82 32.82 0 0 1 28.92 18 32.13 32.13 0 0 1 53.38 24.14v99.93a92.67 92.67 0 0 1 -92.67 92.68h-35.47a78.57 78.57 0 0 1 -55.12-22.81zm13.43-292.78a18 18 0 0 0 -30.73 12.69v165.45a7.09 7.09 0 0 1 -11.35 5.68l-57.53-43.15a25.73 25.73 0 0 0 -33.48 2.37 7.09 7.09 0 0 0 0 10l129.68 129.72a64.32 64.32 0 0 0 45.19 18.73h35.45a78.52 78.52 0 0 0 78.47-78.5v-100a18 18 0 0 0 -36-.57v15.61a7.09 7.09 0 0 1 -14.18 0v-25.05a18 18 0 0 0 -36 0v25.07a7.09 7.09 0 0 1 -14.18 0v-35.09a18.43 18.43 0 0 0 -18-18 18 18 0 0 0 -18 18v35.09a7.09 7.09 0 1 1 -14.17.25 1 1 0 0 1 0-.25v-125.34a17.88 17.88 0 0 0 -5.17-12.71z"/></svg>