<svg id="Capa_1" enable-background="new 0 0 512 512" height="512" viewBox="0 0 512 512" width="512" xmlns="http://www.w3.org/2000/svg"><path d="m466.916 27.803h-421.832c-24.859 0-45.084 20.225-45.084 45.084v366.226c0 24.859 20.225 45.084 45.084 45.084h421.832c24.859 0 45.084-20.225 45.084-45.084v-366.226c0-24.859-20.225-45.084-45.084-45.084zm0 426.394h-421.832c-8.317 0-15.084-6.767-15.084-15.084v-94.378h146.594c11.993 18.035 32.49 29.95 55.725 29.95h47.361c23.235 0 43.732-11.915 55.725-29.95h146.595v94.378c0 8.317-6.767 15.084-15.084 15.084zm-421.832-396.394h421.832c8.317 0 15.084 6.767 15.084 15.084v94.378h-145.672v-3.958c0-8.284-6.716-15-15-15s-15 6.716-15 15v3.958h-13.552v-14.95c0-8.284-6.716-15-15-15s-15 6.716-15 15v14.95h-13.553v-14.95c0-8.284-6.716-15-15-15s-15 6.716-15 15v14.95h-13.552v-3.958c0-8.284-6.716-15-15-15s-15 6.716-15 15v3.958h-145.671v-94.378c0-8.317 6.767-15.084 15.084-15.084zm171.384 139.462v22.583h-21.032v-22.583zm100.096 0v22.583h-21.032v-22.583zm-70.096 82.126v-29.543h19.064v29.543zm-51.032-29.543h21.032v29.543h-21.032zm100.096 0h21.032v29.543h-21.032zm-49.064 59.543h19.064v35.294h-19.064zm19.064-112.126v22.583h-19.064v-22.583zm-70.056 112.126h20.992v31.708c-11.975-5.724-20.395-17.719-20.992-31.708zm100.056 31.708v-31.708h20.992c-.597 13.989-9.017 25.984-20.992 31.708zm-129.737-26.364h-135.795v-117.47h135.436v110.536c0 2.341.123 4.654.359 6.934zm180.769-6.934v-110.536h135.436v117.47h-135.795c.236-2.28.359-4.593.359-6.934z"/></svg>