<svg viewBox="0 0 512 512" xmlns="http://www.w3.org/2000/svg"><path d="m497 27.3h-482c-8.08 0-15 7.75-15 17.6v422.2c0 9.48 6.6 17.6 15 17.6h482c8.46 0 15-8.14 15-17.6v-422.2c0-9.69-6.79-17.6-15-17.6zm-286 167.19-150.82-132h150.82zm-40.18 8.73h-140.82v-123.22zm-140.82 105.56h140.82l-140.82 123.22zm181 8.73v132h-150.82zm15-43.92h-196v-35.18h196c8.28 0 15-7.88 15-17.59v-158.33h30v158.33c0 9.71 6.72 17.59 15 17.59h196v35.18h-196c-8.28 0-15 7.88-15 17.59v158.33h-30v-158.33c0-9.71-6.72-17.59-15-17.59zm75-79.1v-132h150.82zm181-114.49v123.22h-140.82zm-181 237.51 150.82 132h-150.82zm40.18-8.73h140.82v123.22z" fill="#f1f1f1"/></svg>