<svg id="Capa_1" enable-background="new 0 0 511.999 511.999" height="512" viewBox="0 0 511.999 511.999" width="512" xmlns="http://www.w3.org/2000/svg"><path d="m204.818 129.081c16.484 7.775 23.514 27.419 15.739 43.892l-38.827 82.293 72.435-72.447c12.721-12.721 33.265-12.864 46.188-.45 13.313 12.816 12.994 34.543-.071 47.608l-73.512 73.512 90.6-46.602c16.189-8.331 36.081-1.953 44.401 14.236 8.343 16.189 1.952 36.081-14.236 44.401l-78.636 40.46h62.778c18.201 0 32.969 14.757 32.969 32.969 0 18.201-14.757 32.981-32.969 32.981h-28.756c-45.253 0-89.855 10.686-130.173 31.206l-37.419 19.053-32.307 32.307-33.218-33.218-62.292-62.294c19.893-19.905 32.307-32.318 32.307-32.318-5.018-5.006-8.071-11.242-9.183-17.727l-8.166-47.596-14.485-84.435c-3.077-17.964 8.97-35.005 26.922-38.081 17.964-3.077 34.993 8.982 38.069 26.934l11.621 67.713c16.627-19.94 30.685-41.939 41.785-65.489l34.543-73.169c7.776-16.461 27.42-23.514 43.893-15.739z" fill="#f1d0a5"/><g fill="#f1b986"><path d="m29.179 304.648 48.554 87.476-43.537 43.537-26.684-26.673c19.893-19.905 32.307-32.318 32.307-32.318-5.018-5.006-8.071-11.242-9.183-17.727l-8.166-47.596z"/><path d="m364.645 388.951c0-12.41-44.637-11.85-73.65-10.176-12.788.738-23.246-10.042-22.101-22.8h62.775c18.214.009 32.976 14.77 32.976 32.976z"/><path d="m361.608 270.818c-7.011-11.497-74.881 24.581-109.643 44.085-10.101 5.667-22.793-.082-25.198-11.411l90.605-46.605c16.089-8.273 35.817-2.028 44.236 13.931z"/><path d="m181.734 255.266 72.44-72.44c12.677-12.677 33.106-12.881 46.011-.595-7.715-6.105-64.069 49.02-92.51 77.74-7.901 7.98-21.34 5.537-25.941-4.705z"/><path d="m172.753 453.143-37.421 19.052-95.515-95.515c-5.015-5.015-8.069-11.244-9.176-17.742l-.008-.008-22.643-132.022c-3.012-17.538 8.411-34.189 25.664-37.828-20.005 8.231 22 222.783 139.099 264.063z"/><path d="m112.632 300.154c-13.833-12.075-28.033-16.683-28.033-16.683 16.626-19.932 30.679-41.932 41.801-65.479l34.531-73.156c7.776-16.471 27.422-23.531 43.894-15.755-14.957-4.633-91.102 168.581-92.184 171.048z"/></g><path d="m198.072 158.16c17.154-6.159 36.015 2.761 42.165 19.907l30.735 85.645-.008-102.447c0-17.991 14.426-32.618 32.342-32.977 18.476-.352 33.614 15.238 33.614 33.714v103.962l31.112-97.016c5.556-17.338 24.133-26.894 41.463-21.33 17.346 5.548 26.894 24.133 21.33 41.463l-26.995 84.214 44.391-44.391c12.87-12.87 33.747-12.878 46.625 0 12.87 12.87 12.887 33.756.008 46.634l-20.334 20.334c-31.999 31.999-55.981 71.093-69.98 114.112l-12.987 39.931v54.587h-46.977-88.096c-.008-28.141-.008-54.595-.008-54.595-7.088.008-13.656-2.242-19.028-6.042l-39.429-27.881-69.946-49.462c-14.878-10.527-18.409-31.095-7.891-45.964 10.527-14.878 31.094-18.392 45.964-7.874l56.098 39.664c-2.343-25.857-7.958-51.353-16.761-75.854l-27.312-76.164c-6.144-17.142 2.759-36.02 19.905-42.17z" fill="#f1d0a5"/><path d="m198.022 406.5 96.188 27.522v70.477h-37.731c-.008-28.141-.008-54.595-.008-54.595-7.088.008-13.656-2.242-19.028-6.042l-39.429-27.881z" fill="#f1b986"/><path d="m494.843 228.901c-8.775-8.775-39.942 23.183-59.273 44.883-8.52 9.564-23.539 9.337-31.75-.494l44.389-44.389c12.884-12.873 33.76-12.873 46.634 0z" fill="#f1b986"/><path d="m409.162 147.516c-13.087-3.172-35.567 70.33-46.356 108.702-3.135 11.15-16.175 16.059-25.887 9.749l31.112-97.022c5.528-17.227 23.894-26.761 41.131-21.429z" fill="#f1b986"/><path d="m270.975 263.71v-102.446c0-17.928 14.301-32.517 32.114-32.955-9.772 1.138-10.641 79.966-10.443 120.385.055 11.228-11.175 19.004-21.671 15.016z" fill="#f1b986"/><path d="m294.209 438.876v11.035h-37.727c-7.097 0-13.656-2.242-19.037-6.054h-.011l-109.37-77.349c-14.53-10.27-18.219-30.115-8.599-44.892-5.472 13.128 71.035 70.334 155.913 92.772 11.106 2.936 18.831 12.999 18.831 24.488z" fill="#f1b986"/><path d="m222.238 352.336-.004.002c-2.338-25.85-7.957-51.344-16.742-75.858l-27.313-76.146c-6.149-17.145 2.752-36.029 19.897-42.178-9.816 5.173 22.287 96.49 41.829 149.268 6.4 17.284-1.227 36.578-17.667 44.912z" fill="#f1b986"/><path d="m391.554 457.409c-4.142 0-7.5 3.358-7.5 7.5v39.59c0 4.142 3.358 7.5 7.5 7.5s7.5-3.358 7.5-7.5v-39.59c0-4.142-3.358-7.5-7.5-7.5z"/><path d="m500.148 223.596c-15.78-15.78-41.456-15.78-57.236 0l-22.488 22.488 17.542-54.713c3.304-10.299 2.395-21.271-2.56-30.893-4.95-9.612-13.341-16.715-23.617-19.998-10.288-3.307-21.251-2.405-30.868 2.542-9.621 4.948-16.734 13.344-20.028 23.637l-16.479 51.368v-56.027c0-11.045-4.551-21.846-12.487-29.633-7.814-7.668-18.022-11.782-28.774-11.576-21.884.44-39.689 18.594-39.689 40.469l.001 6.913c-5.456 2.013-10.426 5.176-14.594 9.344l-.637.637-.939-2.617c-3.062-8.537-8.76-15.636-16.278-20.43-1.332-14.101-9.991-26.665-22.994-32.797-9.772-4.625-20.76-5.161-30.94-1.509-10.173 3.649-18.319 11.04-22.941 20.817l-34.534 73.168c-.379.807-.769 1.614-1.167 2.421-1.835 3.714-.311 8.211 3.402 10.046 1.068.528 2.201.777 3.316.777 2.764 0 5.423-1.534 6.73-4.18.441-.893.872-1.787 1.289-2.671l34.528-73.156c2.908-6.153 8.037-10.807 14.441-13.104 6.404-2.296 13.314-1.96 19.469.953 5.782 2.726 10.197 7.472 12.594 13.146-6.225-.781-12.59-.103-18.667 2.08-21.001 7.531-31.965 30.75-24.438 51.762l11.684 32.584-7.837 16.616c-1.767 3.747-.163 8.216 3.583 9.983 1.034.488 2.123.719 3.195.719 2.812 0 5.509-1.59 6.788-4.302l1.434-3.04 8.465 23.607c6.687 18.595 11.507 37.858 14.387 57.458l-42.328-29.929c-13.165-9.314-30.033-9.628-43.246-2.213-10.207-12.17-22.334-19.71-30.614-23.858 7.431-9.514 14.34-19.469 20.59-29.709 2.158-3.536 1.041-8.151-2.495-10.309s-8.151-1.04-10.309 2.495c-4.717 7.73-9.825 15.294-15.266 22.611l-8.76-51.089c-1.823-10.653-7.69-19.958-16.519-26.201-8.829-6.242-19.561-8.672-30.219-6.846-21.983 3.763-36.808 24.724-33.045 46.73l22.651 132.035c.998 5.792 3.2 11.215 6.462 15.99l-27.494 27.494c-2.929 2.929-2.929 7.678 0 10.606 1.464 1.465 3.383 2.197 5.303 2.197 1.919 0 3.839-.732 5.303-2.197l32.3-32.3c2.925-2.925 2.93-7.665.011-10.596-3.746-3.76-6.202-8.512-7.102-13.735l-22.649-132.026c-2.369-13.851 6.958-27.045 20.795-29.414 6.711-1.151 13.468.379 19.026 4.309 5.555 3.928 9.247 9.782 10.394 16.486l11.61 67.71c.473 2.76 2.449 5 5.094 5.854l-.008.024c.208.067 19.233 6.407 33.464 23.396-.586.717-1.158 1.45-1.702 2.217-12.886 18.216-8.544 43.527 9.683 56.425l82.288 58.183c-12.56 4.376-24.852 9.609-36.674 15.628l-37.425 19.049c-.703.358-1.345.824-1.902 1.382l-32.301 32.312c-2.928 2.929-2.928 7.678.002 10.606 1.464 1.464 3.383 2.196 5.302 2.196s3.84-.733 5.304-2.198l31.459-31.47 36.365-18.509c14.442-7.353 29.624-13.467 45.136-18.2l11.823 8.359c4.799 3.396 10.184 5.671 15.862 6.731v47.787c0 4.142 3.358 7.5 7.5 7.5s7.5-3.358 7.5-7.5v-54.6c0-1.991-.792-3.9-2.201-5.307-1.406-1.404-3.312-2.193-5.299-2.193-.016 0-.032 0-.048 0-5.274 0-10.338-1.612-14.651-4.664l-109.377-77.338c-11.474-8.12-14.21-24.052-6.102-35.513 8.12-11.465 24.053-14.192 35.52-6.081l56.09 39.661c2.388 1.688 5.541 1.834 8.075.374 2.535-1.46 3.989-4.261 3.725-7.174-2.405-26.565-8.182-52.711-17.17-77.706l-27.309-76.157c-4.737-13.225 2.162-27.841 15.384-32.582 6.407-2.3 13.319-1.967 19.466.937 6.148 2.905 10.8 8.035 13.1 14.449l30.74 85.64c1.232 3.431 4.75 5.484 8.345 4.855 3.592-.625 6.214-3.743 6.214-7.389l-.01-102.449c0-13.768 11.211-25.194 24.982-25.471 6.691-.12 13.059 2.461 17.975 7.285 5.08 4.984 7.993 11.882 7.993 18.926v103.96c0 3.694 2.69 6.839 6.341 7.41 3.647.574 7.172-1.601 8.301-5.119l31.122-97.015c2.074-6.479 6.55-11.761 12.604-14.875 6.051-3.111 12.947-3.68 19.43-1.597 6.468 2.066 11.745 6.534 14.858 12.581 3.119 6.057 3.692 12.962 1.612 19.444l-27 84.21c-1.057 3.297.28 6.889 3.236 8.692 2.955 1.803 6.761 1.348 9.209-1.099l44.39-44.39c9.931-9.931 26.091-9.933 36.023 0 9.937 9.938 9.941 26.102.01 36.034l-20.33 20.33c-32.695 32.695-57.53 73.185-71.82 117.094l-8.34 25.66c-1.28 3.939.875 8.171 4.814 9.451 3.941 1.282 8.171-.875 9.451-4.814l8.339-25.658c13.561-41.669 37.13-80.096 68.162-111.127l20.33-20.33c15.781-15.78 15.776-41.461-.009-57.247zm-246.311-29.831 5.641-5.641c1.225-1.225 2.566-2.302 3.989-3.244l.004 35.723z"/><path d="m110.773 101.737c1.273 2.728 3.978 4.33 6.801 4.33 1.062 0 2.141-.227 3.167-.705 3.753-1.752 5.376-6.214 3.625-9.968l-27.367-58.642c-1.751-3.754-6.214-5.377-9.968-3.625-3.753 1.752-5.376 6.214-3.625 9.968z"/><path d="m174.908 91.731c4.142 0 7.5-3.358 7.5-7.5v-76.731c0-4.142-3.358-7.5-7.5-7.5s-7.5 3.358-7.5 7.5v76.731c0 4.142 3.358 7.5 7.5 7.5z"/><path d="m239.739 95.043c.958.407 1.952.599 2.93.599 2.918 0 5.693-1.714 6.906-4.568l22.154-52.126c1.62-3.812-.157-8.216-3.969-9.836-3.813-1.62-8.216.157-9.836 3.969l-22.154 52.126c-1.62 3.812.157 8.216 3.969 9.836z"/><path d="m40.596 119.247 35.186 22.154c1.241.782 2.623 1.154 3.989 1.154 2.492 0 4.929-1.241 6.354-3.505 2.207-3.505 1.155-8.136-2.351-10.343l-35.186-22.154c-3.506-2.208-8.136-1.154-10.343 2.351s-1.155 8.136 2.351 10.343z"/></svg>