<svg viewBox="0 0 512 512" xmlns="http://www.w3.org/2000/svg"><path d="m466.92 27.8h-421.84a45.14 45.14 0 0 0 -45.08 45.09v366.22a45.14 45.14 0 0 0 45.08 45.09h421.84a45.14 45.14 0 0 0 45.08-45.09v-366.22a45.14 45.14 0 0 0 -45.08-45.09zm0 426.4h-421.84a15.11 15.11 0 0 1 -15.08-15.09v-94.37h146.59a66.89 66.89 0 0 0 55.73 29.95h47.36a66.87 66.87 0 0 0 55.72-29.95h146.6v94.37a15.11 15.11 0 0 1 -15.08 15.09zm-421.84-396.4h421.84a15.11 15.11 0 0 1 15.08 15.09v94.38h-145.67v-4a15 15 0 0 0 -30 0v4h-13.55v-15a15 15 0 0 0 -30 0v15h-13.56v-15a15 15 0 0 0 -30 0v15h-13.55v-4a15 15 0 0 0 -30 0v4h-145.67v-94.38a15.11 15.11 0 0 1 15.08-15.09zm171.39 139.47v22.58h-21v-22.58zm100.09 0v22.58h-21v-22.58zm-70.09 82.12v-29.54h19.06v29.54zm-51-29.54h21v29.54h-21zm100.09 0h21v29.54h-21zm-49.06 59.54h19.06v35.3h-19.09zm19.06-112.12v22.58h-19.09v-22.58zm-70 112.12h21v31.71a36.91 36.91 0 0 1 -21.08-31.71zm100 31.71v-31.71h21a36.91 36.91 0 0 1 -21.03 31.71zm-129.77-26.36h-135.79v-117.47h135.44v110.53a69.2 69.2 0 0 0 .35 6.94zm180.77-6.94v-110.53h135.44v117.47h-135.8a66.35 66.35 0 0 0 .36-6.94z" fill="#f1f1f1"/></svg>